<mxfile host="app.diagrams.net" agent="Mozilla/5.0 (Macintosh; Intel Mac OS X 10_15_7) AppleWebKit/537.36 (KHTML, like Gecko) Chrome/131.0.0.0 Safari/537.36" version="25.0.1">
  <diagram name="Page-1" id="ldoIOYNNErfKGSI_a5Oe">
    <mxGraphModel dx="1194" dy="796" grid="1" gridSize="10" guides="1" tooltips="1" connect="1" arrows="1" fold="1" page="1" pageScale="1" pageWidth="827" pageHeight="1169" math="0" shadow="0">
      <root>
        <mxCell id="0" />
        <mxCell id="1" parent="0" />
        <mxCell id="TV3thd5CLSKtif4FqCPg-66" value="" style="edgeStyle=orthogonalEdgeStyle;rounded=0;orthogonalLoop=1;jettySize=auto;html=1;" parent="1" source="TV3thd5CLSKtif4FqCPg-1" target="TV3thd5CLSKtif4FqCPg-35" edge="1">
          <mxGeometry relative="1" as="geometry" />
        </mxCell>
        <mxCell id="TV3thd5CLSKtif4FqCPg-1" value="ESP-Clinton" style="rounded=1;whiteSpace=wrap;html=1;" parent="1" vertex="1">
          <mxGeometry x="324" y="490" width="120" height="60" as="geometry" />
        </mxCell>
        <mxCell id="TV3thd5CLSKtif4FqCPg-4" value="ESP-Hauskúpa" style="rounded=1;whiteSpace=wrap;html=1;" parent="1" vertex="1">
          <mxGeometry x="199.5" y="40" width="120" height="60" as="geometry" />
        </mxCell>
        <mxCell id="TV3thd5CLSKtif4FqCPg-60" style="edgeStyle=orthogonalEdgeStyle;rounded=0;orthogonalLoop=1;jettySize=auto;html=1;exitX=1;exitY=1;exitDx=0;exitDy=0;entryX=0.5;entryY=0;entryDx=0;entryDy=0;" parent="1" edge="1">
          <mxGeometry relative="1" as="geometry">
            <mxPoint x="280" y="190" as="sourcePoint" />
            <mxPoint x="385" y="280.0000000000002" as="targetPoint" />
            <Array as="points">
              <mxPoint x="386" y="191" />
              <mxPoint x="386" y="280" />
            </Array>
          </mxGeometry>
        </mxCell>
        <mxCell id="TV3thd5CLSKtif4FqCPg-61" style="edgeStyle=orthogonalEdgeStyle;rounded=0;orthogonalLoop=1;jettySize=auto;html=1;exitX=0;exitY=1;exitDx=0;exitDy=0;entryX=0.5;entryY=0;entryDx=0;entryDy=0;" parent="1" source="TV3thd5CLSKtif4FqCPg-5" target="TV3thd5CLSKtif4FqCPg-55" edge="1">
          <mxGeometry relative="1" as="geometry">
            <Array as="points">
              <mxPoint x="240" y="190" />
              <mxPoint x="123" y="190" />
            </Array>
          </mxGeometry>
        </mxCell>
        <mxCell id="TV3thd5CLSKtif4FqCPg-5" value="Skynjari" style="rhombus;whiteSpace=wrap;html=1;rounded=1;" parent="1" vertex="1">
          <mxGeometry x="220" y="150" width="80" height="80" as="geometry" />
        </mxCell>
        <mxCell id="TV3thd5CLSKtif4FqCPg-27" style="edgeStyle=orthogonalEdgeStyle;rounded=0;orthogonalLoop=1;jettySize=auto;html=1;entryX=0.5;entryY=0;entryDx=0;entryDy=0;" parent="1" edge="1">
          <mxGeometry relative="1" as="geometry">
            <mxPoint x="320" y="305.5" as="sourcePoint" />
            <mxPoint x="230" y="378.0000000000002" as="targetPoint" />
          </mxGeometry>
        </mxCell>
        <mxCell id="TV3thd5CLSKtif4FqCPg-43" style="edgeStyle=orthogonalEdgeStyle;rounded=0;orthogonalLoop=1;jettySize=auto;html=1;entryX=0.5;entryY=0;entryDx=0;entryDy=0;" parent="1" source="TV3thd5CLSKtif4FqCPg-7" target="TV3thd5CLSKtif4FqCPg-12" edge="1">
          <mxGeometry relative="1" as="geometry">
            <mxPoint x="690" y="360" as="targetPoint" />
          </mxGeometry>
        </mxCell>
        <mxCell id="TV3thd5CLSKtif4FqCPg-73" value="" style="edgeStyle=orthogonalEdgeStyle;rounded=0;orthogonalLoop=1;jettySize=auto;html=1;" parent="1" source="TV3thd5CLSKtif4FqCPg-7" target="TV3thd5CLSKtif4FqCPg-46" edge="1">
          <mxGeometry relative="1" as="geometry" />
        </mxCell>
        <mxCell id="TV3thd5CLSKtif4FqCPg-7" value="*Samstundis*&lt;div&gt;(Sena hefst)&lt;/div&gt;" style="whiteSpace=wrap;html=1;rounded=1;" parent="1" vertex="1">
          <mxGeometry x="325" y="280" width="120" height="50" as="geometry" />
        </mxCell>
        <mxCell id="TV3thd5CLSKtif4FqCPg-11" value="MP3 Spilast" style="rounded=1;whiteSpace=wrap;html=1;" parent="1" vertex="1">
          <mxGeometry x="170" y="378" width="120" height="60" as="geometry" />
        </mxCell>
        <mxCell id="TV3thd5CLSKtif4FqCPg-12" value="Servo&#39;s fara í gang.&lt;div&gt;(Höndin fer frá andliti, önnur veifar og kjálki upp og niður)&lt;/div&gt;" style="rounded=1;whiteSpace=wrap;html=1;" parent="1" vertex="1">
          <mxGeometry x="610" y="365.5" width="180" height="102.5" as="geometry" />
        </mxCell>
        <mxCell id="TV3thd5CLSKtif4FqCPg-15" value="Ljós/Augu blikka" style="rounded=1;whiteSpace=wrap;html=1;" parent="1" vertex="1">
          <mxGeometry x="470" y="372.5" width="120" height="67.5" as="geometry" />
        </mxCell>
        <mxCell id="TV3thd5CLSKtif4FqCPg-30" value="" style="endArrow=none;dashed=1;html=1;dashPattern=1 3;strokeWidth=2;rounded=0;entryX=0.5;entryY=1;entryDx=0;entryDy=0;exitX=0.5;exitY=0;exitDx=0;exitDy=0;" parent="1" source="TV3thd5CLSKtif4FqCPg-5" target="TV3thd5CLSKtif4FqCPg-4" edge="1">
          <mxGeometry width="50" height="50" relative="1" as="geometry">
            <mxPoint x="450" y="170" as="sourcePoint" />
            <mxPoint x="500" y="120" as="targetPoint" />
          </mxGeometry>
        </mxCell>
        <mxCell id="TV3thd5CLSKtif4FqCPg-34" value="Skynjar" style="text;html=1;align=center;verticalAlign=middle;resizable=0;points=[];autosize=1;strokeColor=none;fillColor=none;" parent="1" vertex="1">
          <mxGeometry x="384" y="210" width="60" height="30" as="geometry" />
        </mxCell>
        <mxCell id="TV3thd5CLSKtif4FqCPg-35" value="*Clinton bregðst við*&lt;div&gt;(Spilar MP3)&lt;/div&gt;" style="whiteSpace=wrap;html=1;rounded=1;" parent="1" vertex="1">
          <mxGeometry x="325" y="620" width="120" height="60" as="geometry" />
        </mxCell>
        <mxCell id="TV3thd5CLSKtif4FqCPg-37" value="STOP" style="rounded=1;whiteSpace=wrap;html=1;" parent="1" vertex="1">
          <mxGeometry x="340" y="760" width="120" height="60" as="geometry" />
        </mxCell>
        <mxCell id="TV3thd5CLSKtif4FqCPg-41" value="Skynjar ekkert" style="text;html=1;align=center;verticalAlign=middle;resizable=0;points=[];autosize=1;strokeColor=none;fillColor=none;" parent="1" vertex="1">
          <mxGeometry x="20" y="300" width="100" height="30" as="geometry" />
        </mxCell>
        <mxCell id="TV3thd5CLSKtif4FqCPg-46" value="Sendir skilaboð" style="rounded=1;whiteSpace=wrap;html=1;" parent="1" vertex="1">
          <mxGeometry x="326.5" y="378" width="115" height="72" as="geometry" />
        </mxCell>
        <mxCell id="TV3thd5CLSKtif4FqCPg-53" value="" style="endArrow=classic;html=1;rounded=0;entryX=0.5;entryY=0;entryDx=0;entryDy=0;" parent="1" target="TV3thd5CLSKtif4FqCPg-15" edge="1">
          <mxGeometry width="50" height="50" relative="1" as="geometry">
            <mxPoint x="530" y="310" as="sourcePoint" />
            <mxPoint x="570" y="310" as="targetPoint" />
          </mxGeometry>
        </mxCell>
        <mxCell id="TV3thd5CLSKtif4FqCPg-57" style="edgeStyle=orthogonalEdgeStyle;rounded=0;orthogonalLoop=1;jettySize=auto;html=1;entryX=0;entryY=0.5;entryDx=0;entryDy=0;" parent="1" source="TV3thd5CLSKtif4FqCPg-55" target="TV3thd5CLSKtif4FqCPg-37" edge="1">
          <mxGeometry relative="1" as="geometry">
            <Array as="points">
              <mxPoint x="120" y="790" />
            </Array>
          </mxGeometry>
        </mxCell>
        <mxCell id="TV3thd5CLSKtif4FqCPg-55" value="ALLT RESET&lt;div&gt;(Hendi hylur andlit, ljós slökknar og etc.)&lt;/div&gt;" style="rounded=1;whiteSpace=wrap;html=1;" parent="1" vertex="1">
          <mxGeometry x="46.5" y="505" width="153" height="92" as="geometry" />
        </mxCell>
        <mxCell id="TV3thd5CLSKtif4FqCPg-65" value="" style="endArrow=none;dashed=1;html=1;dashPattern=1 3;strokeWidth=2;rounded=0;entryX=0.5;entryY=1;entryDx=0;entryDy=0;exitX=0.5;exitY=0;exitDx=0;exitDy=0;" parent="1" source="TV3thd5CLSKtif4FqCPg-1" target="TV3thd5CLSKtif4FqCPg-46" edge="1">
          <mxGeometry width="50" height="50" relative="1" as="geometry">
            <mxPoint x="370" y="500" as="sourcePoint" />
            <mxPoint x="420" y="450" as="targetPoint" />
          </mxGeometry>
        </mxCell>
        <mxCell id="TV3thd5CLSKtif4FqCPg-71" style="edgeStyle=orthogonalEdgeStyle;rounded=0;orthogonalLoop=1;jettySize=auto;html=1;entryX=1;entryY=0.5;entryDx=0;entryDy=0;" parent="1" source="TV3thd5CLSKtif4FqCPg-67" target="TV3thd5CLSKtif4FqCPg-37" edge="1">
          <mxGeometry relative="1" as="geometry">
            <mxPoint x="540" y="800" as="targetPoint" />
            <Array as="points">
              <mxPoint x="540" y="790" />
            </Array>
          </mxGeometry>
        </mxCell>
        <mxCell id="TV3thd5CLSKtif4FqCPg-67" value="*Hættir að skynja*" style="rounded=1;whiteSpace=wrap;html=1;" parent="1" vertex="1">
          <mxGeometry x="480" y="490" width="120" height="60" as="geometry" />
        </mxCell>
        <mxCell id="TV3thd5CLSKtif4FqCPg-75" value="" style="endArrow=none;dashed=1;html=1;rounded=0;entryX=1;entryY=1;entryDx=0;entryDy=0;exitX=0.5;exitY=0;exitDx=0;exitDy=0;" parent="1" source="TV3thd5CLSKtif4FqCPg-67" target="TV3thd5CLSKtif4FqCPg-46" edge="1">
          <mxGeometry width="50" height="50" relative="1" as="geometry">
            <mxPoint x="450" y="500" as="sourcePoint" />
            <mxPoint x="500" y="450" as="targetPoint" />
          </mxGeometry>
        </mxCell>
      </root>
    </mxGraphModel>
  </diagram>
</mxfile>
